<?xml version="1.0" encoding="UTF-8"?>
<!DOCTYPE svg PUBLIC "-//W3C//DTD SVG 1.1//EN" "http://www.w3.org/Graphics/SVG/1.1/DTD/svg11.dtd">
<svg xmlns="http://www.w3.org/2000/svg" version="1.1"   viewBox="0 0 97  79" style="shape-rendering:geometricPrecision; text-rendering:geometricPrecision; image-rendering:optimizeQuality; fill-rule:evenodd; clip-rule:evenodd" xmlns:xlink="http://www.w3.org/1999/xlink">
<g><path style="opacity:1" fill="#ffac3a" d="M 28.5,34.5 C 29.1667,38.5 31.5,40.8333 35.5,41.5C 35.8715,45.205 37.8715,47.205 41.5,47.5C 42.2189,49.0913 43.2189,50.5913 44.5,52C 45.1667,52.6667 45.8333,52.6667 46.5,52C 50.4817,44.0106 55.9817,37.1773 63,31.5C 63,30.1667 63,28.8333 63,27.5C 68.4758,21.1795 75.3091,17.6795 83.5,17C 85.0074,17.8373 85.5074,19.0039 85,20.5C 76.8333,28.6667 68.6667,36.8333 60.5,45C 61.5171,46.0495 61.6838,47.2161 61,48.5C 56.4657,52.6994 52.299,57.1994 48.5,62C 43.788,63.4432 39.9547,62.2765 37,58.5C 36.3828,57.5509 36.5494,56.7175 37.5,56C 24.9179,46.4755 15.2512,35.1421 8.5,22C 11.8911,18.8754 15.5577,18.7087 19.5,21.5C 20.2811,22.7287 20.7811,24.062 21,25.5C 24.0884,28.0814 26.5884,31.0814 28.5,34.5 Z"/></g>
<g><path style="opacity:1" fill="#ff9dbb" d="M 28.5,34.5 C 31.8333,35.8333 34.1667,38.1667 35.5,41.5C 31.5,40.8333 29.1667,38.5 28.5,34.5 Z"/></g>
<g><path style="opacity:1" fill="#ffa3d8" d="M 35.5,41.5 C 38.5223,42.5222 40.5223,44.5222 41.5,47.5C 37.8715,47.205 35.8715,45.205 35.5,41.5 Z"/></g>
</svg>
