<?xml version="1.0" encoding="UTF-8"?>
<!DOCTYPE svg PUBLIC "-//W3C//DTD SVG 1.1//EN" "http://www.w3.org/Graphics/SVG/1.1/DTD/svg11.dtd">
<svg xmlns="http://www.w3.org/2000/svg" version="1.1" width="291px" height="559px" style="shape-rendering:geometricPrecision; text-rendering:geometricPrecision; image-rendering:optimizeQuality; fill-rule:evenodd; clip-rule:evenodd" xmlns:xlink="http://www.w3.org/1999/xlink">
<g><path style="opacity:0.996" fill="#e9e5e4" d="M 121.5,70.5 C 119.928,73.2154 118.928,76.2154 118.5,79.5C 117.828,80.2674 116.995,80.9341 116,81.5C 114.266,80.7511 112.433,80.2511 110.5,80C 109.447,78.2507 109.78,76.7507 111.5,75.5C 113.163,73.5615 113.829,71.2282 113.5,68.5C 116.976,50.7615 112.809,48.4281 101,61.5C 90.3445,80.1183 82.0112,99.785 76,120.5C 75.1667,121.333 74.3333,122.167 73.5,123C 84.7265,123.233 95.8932,124.066 107,125.5C 108.88,124.098 110.547,122.431 112,120.5C 112.765,120.57 113.265,120.903 113.5,121.5C 113.427,123.027 114.094,124.027 115.5,124.5C 115.5,126.833 115.5,129.167 115.5,131.5C 114.622,134.287 112.622,135.62 109.5,135.5C 94.0218,131.35 78.3551,130.183 62.5,132C 61.3269,135.528 58.9936,136.861 55.5,136C 54.7476,135.329 54.4142,134.496 54.5,133.5C 54.5,130.833 54.5,128.167 54.5,125.5C 57.818,124.025 61.318,123.025 65,122.5C 66.3102,121.87 67.1435,120.87 67.5,119.5C 69.4725,116.916 70.4725,113.916 70.5,110.5C 71.2613,106.216 72.5947,102.216 74.5,98.5C 76.5848,96.3155 77.5848,93.6489 77.5,90.5C 80.0407,82.4254 83.3741,74.7587 87.5,67.5C 88.9063,67.0269 89.573,66.0269 89.5,64.5C 92.23,57.5677 96.5634,51.7343 102.5,47C 105.167,46.3333 107.833,46.3333 110.5,47C 114.543,48.7166 118.71,49.8833 123,50.5C 123.667,55.8333 123.667,61.1667 123,66.5C 122.79,68.0581 122.29,69.3915 121.5,70.5 Z"/></g>
<g><path style="opacity:0.996" fill="#e2dcdc" d="M 211.5,63.5 C 209.733,65.7916 208.733,68.4582 208.5,71.5C 208.295,77.4286 205.962,78.762 201.5,75.5C 201.704,72.4824 202.037,69.4824 202.5,66.5C 203.44,60.5254 204.273,54.5254 205,48.5C 205.388,47.572 206.055,46.9054 207,46.5C 213.636,50.858 215.136,56.5247 211.5,63.5 Z"/></g>
<g><path style="opacity:0.996" fill="#e9e4e3" d="M 196.5,53.5 C 196.557,54.609 196.89,55.609 197.5,56.5C 193.91,56.5441 191.41,58.2108 190,61.5C 186.774,67.8518 183.94,74.3518 181.5,81C 185.635,82.4308 189.968,82.9308 194.5,82.5C 194.5,83.8333 194.5,85.1667 194.5,86.5C 189.462,86.8373 184.462,87.504 179.5,88.5C 178.133,92.2761 176.8,95.9428 175.5,99.5C 172.939,104.411 171.606,109.744 171.5,115.5C 169.511,119.402 169.177,123.402 170.5,127.5C 170.833,127.5 171.167,127.5 171.5,127.5C 175.771,124.899 179.437,121.566 182.5,117.5C 184.225,117.843 184.725,118.843 184,120.5C 180.535,124.967 176.702,129.133 172.5,133C 168.966,133.864 165.966,133.031 163.5,130.5C 163.5,126.833 163.5,123.167 163.5,119.5C 163.5,119.167 163.5,118.833 163.5,118.5C 165.04,116.162 165.706,113.495 165.5,110.5C 166.852,103.092 168.519,95.7586 170.5,88.5C 167.62,88.9675 165.287,88.1341 163.5,86C 163.645,85.228 163.978,84.5613 164.5,84C 167.154,83.0594 169.821,82.2261 172.5,81.5C 173.75,81.4226 174.583,80.756 175,79.5C 176.43,76.6473 177.263,73.6473 177.5,70.5C 179.042,63.5839 182.042,57.4172 186.5,52C 190.072,51.1529 193.406,51.6529 196.5,53.5 Z"/></g>
<g><path style="opacity:0.29" fill="#7d5430" d="M 196.5,53.5 C 198.382,54.221 198.715,55.221 197.5,56.5C 196.89,55.609 196.557,54.609 196.5,53.5 Z"/></g>
<g><path style="opacity:0.38" fill="#3b6aa6" d="M 89.5,64.5 C 89.573,66.0269 88.9063,67.0269 87.5,67.5C 87.427,65.9731 88.0937,64.9731 89.5,64.5 Z"/></g>
<g><path style="opacity:0.62" fill="#b3733c" d="M 211.5,63.5 C 211.267,66.5418 210.267,69.2084 208.5,71.5C 208.733,68.4582 209.733,65.7916 211.5,63.5 Z"/></g>
<g><path style="opacity:0.816" fill="#567bb3" d="M 202.5,66.5 C 202.037,69.4824 201.704,72.4824 201.5,75.5C 200.609,74.7387 199.942,73.7387 199.5,72.5C 200.519,70.396 201.519,68.396 202.5,66.5 Z"/></g>
<g><path style="opacity:0.941" fill="#6494c9" d="M 113.5,68.5 C 113.829,71.2282 113.163,73.5615 111.5,75.5C 111.721,72.9327 112.388,70.5994 113.5,68.5 Z"/></g>
<g><path style="opacity:0.62" fill="#b5743d" d="M 121.5,70.5 C 121.472,73.9164 120.472,76.9164 118.5,79.5C 118.928,76.2154 119.928,73.2154 121.5,70.5 Z"/></g>
<g><path style="opacity:0.816" fill="#668dc2" d="M 177.5,70.5 C 177.263,73.6473 176.43,76.6473 175,79.5C 174.583,80.756 173.75,81.4226 172.5,81.5C 173.989,77.6767 175.656,74.01 177.5,70.5 Z"/></g>
<g><path style="opacity:0.996" fill="#e5e2e2" d="M 154.5,79.5 C 154.5,86.1667 154.5,92.8333 154.5,99.5C 153.342,102.822 151.008,104.988 147.5,106C 143.11,106.772 138.777,106.606 134.5,105.5C 132.421,108.898 131.087,112.564 130.5,116.5C 129.028,118.117 128.361,120.117 128.5,122.5C 128.511,124.045 128.844,125.378 129.5,126.5C 130.151,127.091 130.818,127.757 131.5,128.5C 139.589,124.447 146.589,118.947 152.5,112C 153.793,111.51 155.127,111.343 156.5,111.5C 156.649,112.552 156.483,113.552 156,114.5C 150.866,120.635 145.366,126.469 139.5,132C 136.634,133.457 133.634,133.79 130.5,133C 127.319,130.814 124.485,128.314 122,125.5C 121.686,118.572 122.852,111.906 125.5,105.5C 126.573,103.653 126.573,101.653 125.5,99.5C 126.496,99.5858 127.329,99.2524 128,98.5C 128.941,96.2726 130.108,94.2726 131.5,92.5C 132.906,92.0269 133.573,91.0269 133.5,89.5C 134.818,85.6681 137.152,82.5014 140.5,80C 145.172,80.8199 149.838,80.6533 154.5,79.5 Z M 148.5,85.5 C 148.706,89.8982 148.373,94.2315 147.5,98.5C 144.095,102.134 140.095,102.967 135.5,101C 137.841,95.3117 141.174,90.3117 145.5,86C 146.448,85.5172 147.448,85.3505 148.5,85.5 Z"/></g>
<g><path style="opacity:0.996" fill="#eae8e7" d="M 238.5,79.5 C 238.5,82.8333 238.5,86.1667 238.5,89.5C 237.957,94.0916 235.29,96.0916 230.5,95.5C 230.205,93.2646 230.539,91.2646 231.5,89.5C 232.473,87.0521 232.806,84.3854 232.5,81.5C 234.102,79.9261 236.102,79.2594 238.5,79.5 Z"/></g>
<g><path style="opacity:0.875" fill="#b77d4c" d="M 238.5,79.5 C 239.391,80.2613 240.058,81.2613 240.5,82.5C 239.933,84.9823 239.266,87.3157 238.5,89.5C 238.5,86.1667 238.5,82.8333 238.5,79.5 Z"/></g>
<g><path style="opacity:0.996" fill="#e1e0e4" d="M 232.5,81.5 C 232.806,84.3854 232.473,87.0521 231.5,89.5C 231.662,87.4727 231.495,85.4727 231,83.5C 228.722,84.719 226.555,86.0523 224.5,87.5C 222.974,88.4919 222.307,89.9919 222.5,92C 222.497,94.4839 223.163,96.6505 224.5,98.5C 225.009,103.16 226.342,107.493 228.5,111.5C 232.175,118.97 230.175,124.47 222.5,128C 221.547,129.955 220.213,131.622 218.5,133C 212.786,133.632 207.119,133.299 201.5,132C 198.904,130.203 199.237,128.869 202.5,128C 207.511,127.415 212.511,126.749 217.5,126C 219.35,125.31 220.684,124.144 221.5,122.5C 222.902,118.71 222.569,115.044 220.5,111.5C 216.532,104.752 214.699,97.4184 215,89.5C 216.167,87 218,85.1667 220.5,84C 224.538,82.1466 228.538,81.3132 232.5,81.5 Z"/></g>
<g><path style="opacity:0.761" fill="#e09e5b" d="M 154.5,79.5 C 155.376,79.3691 156.043,79.7025 156.5,80.5C 155.869,86.9636 155.203,93.2969 154.5,99.5C 154.5,92.8333 154.5,86.1667 154.5,79.5 Z"/></g>
<g><path style="opacity:0.682" fill="#75b4f2" d="M 148.5,85.5 C 149.163,87.4726 149.496,89.6392 149.5,92C 149.467,94.6103 148.8,96.777 147.5,98.5C 148.373,94.2315 148.706,89.8982 148.5,85.5 Z"/></g>
<g><path style="opacity:0.62" fill="#c38242" d="M 224.5,87.5 C 223.421,91.1346 223.421,94.8013 224.5,98.5C 223.163,96.6505 222.497,94.4839 222.5,92C 222.307,89.9919 222.974,88.4919 224.5,87.5 Z"/></g>
<g><path style="opacity:0.38" fill="#3b6aa6" d="M 133.5,89.5 C 133.573,91.0269 132.906,92.0269 131.5,92.5C 131.427,90.9731 132.094,89.9731 133.5,89.5 Z"/></g>
<g><path style="opacity:0.816" fill="#6694c9" d="M 77.5,90.5 C 77.5848,93.6489 76.5848,96.3155 74.5,98.5C 74.7329,95.4582 75.7329,92.7916 77.5,90.5 Z"/></g>
<g><path style="opacity:0.816" fill="#587aa9" d="M 125.5,99.5 C 126.573,101.653 126.573,103.653 125.5,105.5C 125.617,103.516 124.95,101.85 123.5,100.5C 123.957,99.7025 124.624,99.3691 125.5,99.5 Z"/></g>
<g><path style="opacity:0.761" fill="#b4723d" d="M 175.5,99.5 C 174.453,105.02 173.12,110.354 171.5,115.5C 171.606,109.744 172.939,104.411 175.5,99.5 Z"/></g>
<g><path style="opacity:0.988" fill="#c78f5a" d="M 224.5,98.5 C 226.61,102.502 227.943,106.835 228.5,111.5C 226.342,107.493 225.009,103.16 224.5,98.5 Z"/></g>
<g><path style="opacity:0.816" fill="#517fbd" d="M 70.5,110.5 C 70.4725,113.916 69.4725,116.916 67.5,119.5C 67.9281,116.215 68.9281,113.215 70.5,110.5 Z"/></g>
<g><path style="opacity:0.38" fill="#3775bc" d="M 220.5,111.5 C 222.569,115.044 222.902,118.71 221.5,122.5C 221.448,118.802 221.114,115.135 220.5,111.5 Z"/></g>
<g><path style="opacity:0.38" fill="#3962a9" d="M 165.5,110.5 C 165.706,113.495 165.04,116.162 163.5,118.5C 163.565,115.572 164.232,112.905 165.5,110.5 Z"/></g>
<g><path style="opacity:0.816" fill="#7499c0" d="M 182.5,117.5 C 179.437,121.566 175.771,124.899 171.5,127.5C 174.563,123.434 178.229,120.101 182.5,117.5 Z"/></g>
<g><path style="opacity:0.761" fill="#d3955c" d="M 130.5,116.5 C 130.384,119.86 130.051,123.193 129.5,126.5C 128.844,125.378 128.511,124.045 128.5,122.5C 128.361,120.117 129.028,118.117 130.5,116.5 Z"/></g>
<g><path style="opacity:0.62" fill="#cb8747" d="M 171.5,115.5 C 171.167,119.5 170.833,123.5 170.5,127.5C 169.177,123.402 169.511,119.402 171.5,115.5 Z"/></g>
<g><path style="opacity:0.471" fill="#ad7134" d="M 113.5,121.5 C 114.906,121.973 115.573,122.973 115.5,124.5C 114.094,124.027 113.427,123.027 113.5,121.5 Z"/></g>
<g><path style="opacity:0.941" fill="#5f83ba" d="M 163.5,119.5 C 163.5,123.167 163.5,126.833 163.5,130.5C 162.12,130.038 161.453,129.038 161.5,127.5C 161.964,124.651 162.631,121.984 163.5,119.5 Z"/></g>
<g><path style="opacity:0.875" fill="#c18b59" d="M 115.5,124.5 C 116.434,125.772 117.101,127.272 117.5,129C 117.361,130.301 116.695,131.134 115.5,131.5C 115.5,129.167 115.5,126.833 115.5,124.5 Z"/></g>
<g><path style="opacity:0.816" fill="#5b81b4" d="M 54.5,125.5 C 54.5,128.167 54.5,130.833 54.5,133.5C 52.3953,130.715 52.3953,128.049 54.5,125.5 Z"/></g>
<g><path style="opacity:0.996" fill="#e9e4e3" d="M 124.5,236.5 C 124.557,237.609 124.89,238.609 125.5,239.5C 121.91,239.544 119.41,241.211 118,244.5C 114.774,250.852 111.94,257.352 109.5,264C 113.635,265.431 117.968,265.931 122.5,265.5C 122.5,266.833 122.5,268.167 122.5,269.5C 117.462,269.837 112.462,270.504 107.5,271.5C 106.133,275.276 104.8,278.943 103.5,282.5C 100.939,287.411 99.6056,292.744 99.5,298.5C 97.5106,302.402 97.1773,306.402 98.5,310.5C 98.8333,310.5 99.1667,310.5 99.5,310.5C 103.771,307.899 107.437,304.566 110.5,300.5C 112.225,300.843 112.725,301.843 112,303.5C 108.535,307.967 104.702,312.133 100.5,316C 96.9661,316.864 93.9661,316.031 91.5,313.5C 91.5,309.833 91.5,306.167 91.5,302.5C 91.5,302.167 91.5,301.833 91.5,301.5C 93.0395,299.162 93.7062,296.495 93.5,293.5C 94.8521,286.092 96.5188,278.759 98.5,271.5C 95.6205,271.967 93.2871,271.134 91.5,269C 91.6448,268.228 91.9781,267.561 92.5,267C 95.154,266.059 97.8206,265.226 100.5,264.5C 101.75,264.423 102.583,263.756 103,262.5C 104.43,259.647 105.263,256.647 105.5,253.5C 107.042,246.584 110.042,240.417 114.5,235C 118.072,234.153 121.406,234.653 124.5,236.5 Z"/></g>
<g><path style="opacity:0.29" fill="#7d5430" d="M 124.5,236.5 C 126.382,237.221 126.715,238.221 125.5,239.5C 124.89,238.609 124.557,237.609 124.5,236.5 Z"/></g>
<g><path style="opacity:0.816" fill="#668dc2" d="M 105.5,253.5 C 105.263,256.647 104.43,259.647 103,262.5C 102.583,263.756 101.75,264.423 100.5,264.5C 101.989,260.677 103.656,257.01 105.5,253.5 Z"/></g>
<g><path style="opacity:0.996" fill="#e2dbd9" d="M 157.5,273.5 C 157.167,273.5 156.833,273.5 156.5,273.5C 155.213,277.313 154.213,281.313 153.5,285.5C 151.447,285.598 149.78,284.931 148.5,283.5C 148.5,281.167 148.5,278.833 148.5,276.5C 148.5,276.167 148.5,275.833 148.5,275.5C 149.622,273.712 149.789,271.712 149,269.5C 148.283,270.044 147.783,270.711 147.5,271.5C 138.123,284.589 131.123,298.922 126.5,314.5C 123.213,315.942 120.38,315.275 118,312.5C 117.742,307.88 118.576,303.546 120.5,299.5C 121.924,297.485 122.59,295.152 122.5,292.5C 124.277,289.495 125.277,286.162 125.5,282.5C 125.649,281.448 125.483,280.448 125,279.5C 122.784,282.047 121.117,282.047 120,279.5C 123.656,275.521 126.822,271.188 129.5,266.5C 133.052,264.923 136.052,265.59 138.5,268.5C 135.496,273.734 133.829,279.067 133.5,284.5C 134.906,284.027 135.573,283.027 135.5,281.5C 138.463,274.695 142.463,268.529 147.5,263C 155.068,262.402 158.401,265.902 157.5,273.5 Z"/></g>
<g><path style="opacity:0.996" fill="#e4dfe0" d="M 173.5,280.5 C 171.625,285.206 170.625,290.206 170.5,295.5C 169.973,298.909 169.473,302.242 169,305.5C 180.034,293.436 188.534,279.769 194.5,264.5C 197.407,263.144 199.741,263.81 201.5,266.5C 201.331,271.181 200.998,275.848 200.5,280.5C 199.415,288.84 197.415,296.84 194.5,304.5C 193.076,306.515 192.41,308.848 192.5,311.5C 191.076,313.515 190.41,315.848 190.5,318.5C 186.747,333.003 180.58,346.336 172,358.5C 164.51,367.996 155.01,370.829 143.5,367C 137.728,364.366 132.561,360.866 128,356.5C 127.51,355.207 127.343,353.873 127.5,352.5C 131.536,352.353 134.869,353.853 137.5,357C 141.186,359.343 145.186,360.843 149.5,361.5C 153.507,360.921 157.174,359.588 160.5,357.5C 163.5,356.5 165.5,354.5 166.5,351.5C 167.934,348.953 169.6,346.619 171.5,344.5C 172.906,344.027 173.573,343.027 173.5,341.5C 177.382,332.504 181.049,323.504 184.5,314.5C 185.924,312.485 186.59,310.152 186.5,307.5C 187.924,305.485 188.59,303.152 188.5,300.5C 189.287,295.411 190.12,290.411 191,285.5C 183.57,296.594 175.07,306.76 165.5,316C 161.115,316.968 158.115,315.301 156.5,311C 162.521,298.562 165.355,285.396 165,271.5C 162.981,274.712 160.147,276.378 156.5,276.5C 156.5,275.833 156.5,275.167 156.5,274.5C 157.167,274.5 157.5,274.167 157.5,273.5C 160.03,270.312 162.696,267.145 165.5,264C 168.5,263.333 171.5,263.333 174.5,264C 175.781,269.666 175.448,275.166 173.5,280.5 Z"/></g>
<g><path style="opacity:0.976" fill="#b58050" d="M 201.5,266.5 C 202.88,266.962 203.547,267.962 203.5,269.5C 202.864,273.392 201.864,277.058 200.5,280.5C 200.998,275.848 201.331,271.181 201.5,266.5 Z"/></g>
<g><path style="opacity:0.106" fill="#29256b" d="M 148.5,275.5 C 148.768,273.901 148.434,272.568 147.5,271.5C 147.783,270.711 148.283,270.044 149,269.5C 149.789,271.712 149.622,273.712 148.5,275.5 Z"/></g>
<g><path style="opacity:0.471" fill="#b37037" d="M 156.5,273.5 C 156.5,273.833 156.5,274.167 156.5,274.5C 156.5,275.167 156.5,275.833 156.5,276.5C 156.253,279.854 155.253,282.854 153.5,285.5C 154.213,281.313 155.213,277.313 156.5,273.5 Z"/></g>
<g><path style="opacity:0.816" fill="#4d74ac" d="M 148.5,276.5 C 148.5,278.833 148.5,281.167 148.5,283.5C 146.574,281.373 146.574,279.04 148.5,276.5 Z"/></g>
<g><path style="opacity:0.38" fill="#3b6aa6" d="M 135.5,281.5 C 135.573,283.027 134.906,284.027 133.5,284.5C 133.427,282.973 134.094,281.973 135.5,281.5 Z"/></g>
<g><path style="opacity:0.761" fill="#b4723d" d="M 103.5,282.5 C 102.453,288.02 101.12,293.354 99.5,298.5C 99.6056,292.744 100.939,287.411 103.5,282.5 Z"/></g>
<g><path style="opacity:0.816" fill="#5079b9" d="M 125.5,282.5 C 125.277,286.162 124.277,289.495 122.5,292.5C 122.723,288.838 123.723,285.505 125.5,282.5 Z"/></g>
<g><path style="opacity:0.471" fill="#b06c31" d="M 173.5,280.5 C 173.118,285.744 172.118,290.744 170.5,295.5C 170.625,290.206 171.625,285.206 173.5,280.5 Z"/></g>
<g><path style="opacity:0.537" fill="#416fb5" d="M 122.5,292.5 C 122.59,295.152 121.924,297.485 120.5,299.5C 120.41,296.848 121.076,294.515 122.5,292.5 Z"/></g>
<g><path style="opacity:0.38" fill="#3962a9" d="M 93.5,293.5 C 93.7062,296.495 93.0395,299.162 91.5,301.5C 91.5651,298.572 92.2318,295.905 93.5,293.5 Z"/></g>
<g><path style="opacity:0.816" fill="#7499c0" d="M 110.5,300.5 C 107.437,304.566 103.771,307.899 99.5,310.5C 102.563,306.434 106.229,303.101 110.5,300.5 Z"/></g>
<g><path style="opacity:0.816" fill="#5179bc" d="M 188.5,300.5 C 188.59,303.152 187.924,305.485 186.5,307.5C 186.41,304.848 187.076,302.515 188.5,300.5 Z"/></g>
<g><path style="opacity:0.62" fill="#cb8747" d="M 99.5,298.5 C 99.1667,302.5 98.8333,306.5 98.5,310.5C 97.1773,306.402 97.5106,302.402 99.5,298.5 Z"/></g>
<g><path style="opacity:0.761" fill="#c98449" d="M 194.5,304.5 C 194.59,307.152 193.924,309.485 192.5,311.5C 192.41,308.848 193.076,306.515 194.5,304.5 Z"/></g>
<g><path style="opacity:0.941" fill="#5f83ba" d="M 91.5,302.5 C 91.5,306.167 91.5,309.833 91.5,313.5C 90.1201,313.038 89.4534,312.038 89.5,310.5C 89.9644,307.651 90.6311,304.984 91.5,302.5 Z"/></g>
<g><path style="opacity:0.816" fill="#4f79b8" d="M 186.5,307.5 C 186.59,310.152 185.924,312.485 184.5,314.5C 184.41,311.848 185.076,309.515 186.5,307.5 Z"/></g>
<g><path style="opacity:0.62" fill="#c07b3e" d="M 192.5,311.5 C 192.59,314.152 191.924,316.485 190.5,318.5C 190.41,315.848 191.076,313.515 192.5,311.5 Z"/></g>
<g><path style="opacity:0.38" fill="#3b6aa6" d="M 173.5,341.5 C 173.573,343.027 172.906,344.027 171.5,344.5C 171.427,342.973 172.094,341.973 173.5,341.5 Z"/></g>
<g><path style="opacity:0.816" fill="#7392be" d="M 166.5,351.5 C 165.5,354.5 163.5,356.5 160.5,357.5C 162.167,355.167 164.167,353.167 166.5,351.5 Z"/></g>
<g><path style="opacity:0.996" fill="#eae6e6" d="M 230.5,456.5 C 233.5,454.167 236.167,451.5 238.5,448.5C 240.011,446.559 242.011,446.059 244.5,447C 247.961,448.305 250.628,450.471 252.5,453.5C 252.498,459.523 252.165,465.523 251.5,471.5C 249.723,474.505 248.723,477.838 248.5,481.5C 246.936,487.795 243.936,493.295 239.5,498C 232.394,500.787 226.727,498.954 222.5,492.5C 224.828,491.276 227.161,491.276 229.5,492.5C 232.13,491.196 234.463,489.53 236.5,487.5C 237.906,487.027 238.573,486.027 238.5,484.5C 242.559,475.265 244.892,465.598 245.5,455.5C 245.715,453.821 245.048,452.821 243.5,452.5C 236.167,457.667 230,464 225,471.5C 220.616,478.273 216.783,485.273 213.5,492.5C 211.194,496.085 209.861,500.085 209.5,504.5C 207.584,508.163 206.584,512.163 206.5,516.5C 206.795,518.735 206.461,520.735 205.5,522.5C 204.71,523.609 204.21,524.942 204,526.5C 203.501,531.823 203.334,537.156 203.5,542.5C 203.784,545.777 203.451,548.943 202.5,552C 199.187,552.864 196.854,551.698 195.5,548.5C 195.668,541.49 196.001,534.49 196.5,527.5C 196.754,521.905 197.754,516.572 199.5,511.5C 201.04,509.162 201.706,506.495 201.5,503.5C 201.232,501.901 201.566,500.568 202.5,499.5C 204.483,496.201 205.483,492.534 205.5,488.5C 205.5,488.167 205.5,487.833 205.5,487.5C 207.472,484.916 208.472,481.916 208.5,478.5C 212.407,462.27 218.74,447.103 227.5,433C 233.31,432.57 238.31,434.403 242.5,438.5C 237.758,438.787 233.925,440.787 231,444.5C 227.127,451.233 224.127,458.233 222,465.5C 224.334,462 227.168,459 230.5,456.5 Z"/></g>
<g><path style="opacity:0.996" fill="#e1dfe2" d="M 55.5,446.5 C 60.7342,448.483 66.0676,449.15 71.5,448.5C 71.7992,455.283 71.1325,461.949 69.5,468.5C 66.3568,469.377 64.0235,468.211 62.5,465C 64.1058,460.988 64.7725,456.821 64.5,452.5C 61.6178,451.131 59.1178,451.798 57,454.5C 53.26,460.647 50.0934,466.98 47.5,473.5C 44.2994,479.861 43.7994,486.528 46,493.5C 46.3826,494.056 46.8826,494.389 47.5,494.5C 49.854,495.684 52.1874,495.518 54.5,494C 59.1667,490.667 63.1667,486.667 66.5,482C 67.448,481.517 68.448,481.351 69.5,481.5C 67.8531,488.293 64.5198,494.127 59.5,499C 51.4326,500.446 44.5992,498.28 39,492.5C 36.9503,487.308 37.117,482.308 39.5,477.5C 41.2766,474.495 42.2766,471.162 42.5,467.5C 44.1318,461.57 46.7985,456.236 50.5,451.5C 52.5,450.167 54.1667,448.5 55.5,446.5 Z"/></g>
<g><path style="opacity:0.996" fill="#e4dfdf" d="M 118.5,451.5 C 117.249,458.921 115.583,466.254 113.5,473.5C 111.797,475.851 111.297,478.518 112,481.5C 112.464,480.906 112.631,480.239 112.5,479.5C 114.053,477.615 116.053,476.615 118.5,476.5C 115.151,483.211 112.317,490.211 110,497.5C 107.206,498.846 104.706,498.346 102.5,496C 101.919,495.107 101.585,494.107 101.5,493C 102.408,487.267 103.741,481.767 105.5,476.5C 107.238,474.881 107.738,472.881 107,470.5C 106.283,471.044 105.783,471.711 105.5,472.5C 105.5,472.833 105.5,473.167 105.5,473.5C 99.0037,482.254 91.6704,490.421 83.5,498C 81.1055,499.598 78.7721,499.764 76.5,498.5C 75.8783,497.373 75.045,496.373 74,495.5C 73.5014,491.848 73.3347,488.182 73.5,484.5C 74.4316,479.311 76.4316,474.644 79.5,470.5C 80.9063,470.027 81.573,469.027 81.5,467.5C 85.382,459.266 91.0486,452.433 98.5,447C 100.5,446.333 102.5,446.333 104.5,447C 106.388,449.19 108.555,451.023 111,452.5C 111.415,450.709 112.415,449.376 114,448.5C 115.615,449.386 117.115,450.386 118.5,451.5 Z M 103.5,453.5 C 105.801,454.06 108.134,454.56 110.5,455C 102.556,469.608 92.3898,482.442 80,493.5C 82.4206,476.993 90.254,463.659 103.5,453.5 Z"/></g>
<g><path style="opacity:0.996" fill="#e5dfde" d="M 141.5,449.5 C 141.5,452.5 141.5,455.5 141.5,458.5C 141.123,461.525 140.956,464.525 141,467.5C 145.741,460.088 151.241,453.255 157.5,447C 162.863,445.765 166.696,447.599 169,452.5C 169.256,457.689 168.756,462.689 167.5,467.5C 166.225,469.608 165.725,471.942 166,474.5C 166.791,473.255 167.291,471.922 167.5,470.5C 173.552,462.27 180.219,454.437 187.5,447C 191.192,446.343 194.525,447.176 197.5,449.5C 198.398,455.792 198.398,462.125 197.5,468.5C 197.452,471.313 196.785,473.979 195.5,476.5C 195.667,476.833 195.833,477.167 196,477.5C 197.11,475.963 198.61,475.297 200.5,475.5C 200.509,477.308 200.009,478.975 199,480.5C 195.041,486.918 191.207,493.418 187.5,500C 184.813,500.537 182.313,500.037 180,498.5C 179.903,495.284 180.736,492.284 182.5,489.5C 184.834,487.824 185.834,485.491 185.5,482.5C 187.605,479.592 188.605,476.258 188.5,472.5C 190.114,465.916 190.614,459.249 190,452.5C 178.632,463.567 169.466,476.233 162.5,490.5C 160.733,492.792 159.733,495.458 159.5,498.5C 156.484,498.159 153.818,496.993 151.5,495C 153.284,491.124 154.951,487.291 156.5,483.5C 157.924,481.485 158.59,479.152 158.5,476.5C 158.646,472.613 159.313,468.946 160.5,465.5C 161.812,460.985 161.812,456.318 160.5,451.5C 159.893,451.624 159.56,451.957 159.5,452.5C 147.321,465.498 138.155,480.498 132,497.5C 128.39,498.954 125.557,497.954 123.5,494.5C 124.193,493.482 124.859,492.482 125.5,491.5C 128.53,487.077 130.197,482.077 130.5,476.5C 132.04,474.162 132.706,471.495 132.5,468.5C 132.205,466.265 132.539,464.265 133.5,462.5C 134.638,459.696 134.805,456.696 134,453.5C 133.283,454.044 132.783,454.711 132.5,455.5C 131.064,456.429 129.731,457.595 128.5,459C 127.056,459.781 125.723,459.614 124.5,458.5C 127.309,454.523 130.309,450.69 133.5,447C 134.833,446.333 136.167,446.333 137.5,447C 138.693,448.095 140.027,448.928 141.5,449.5 Z"/></g>
<g><path style="opacity:0.843" fill="#6a8bbe" d="M 55.5,446.5 C 54.1667,448.5 52.5,450.167 50.5,451.5C 51.1667,448.833 52.8333,447.167 55.5,446.5 Z"/></g>
<g><path style="opacity:0.976" fill="#bf8d5c" d="M 71.5,448.5 C 72.9402,449.946 73.6068,451.779 73.5,454C 73.0541,457.175 72.5541,460.342 72,463.5C 71.6264,465.491 70.793,467.158 69.5,468.5C 71.1325,461.949 71.7992,455.283 71.5,448.5 Z"/></g>
<g><path style="opacity:0.761" fill="#b16f3d" d="M 141.5,449.5 C 142.267,450.172 142.934,451.005 143.5,452C 142.883,454.277 142.216,456.444 141.5,458.5C 141.5,455.5 141.5,452.5 141.5,449.5 Z"/></g>
<g><path style="opacity:0.816" fill="#6692bc" d="M 238.5,448.5 C 236.167,451.5 233.5,454.167 230.5,456.5C 232.167,452.833 234.833,450.167 238.5,448.5 Z"/></g>
<g><path style="opacity:0.106" fill="#3d3d84" d="M 133.5,462.5 C 133.802,459.941 133.468,457.607 132.5,455.5C 132.783,454.711 133.283,454.044 134,453.5C 134.805,456.696 134.638,459.696 133.5,462.5 Z"/></g>
<g><path style="opacity:0.62" fill="#ba793e" d="M 197.5,449.5 C 198.117,449.611 198.617,449.944 199,450.5C 199.892,456.754 199.392,462.754 197.5,468.5C 198.398,462.125 198.398,455.792 197.5,449.5 Z"/></g>
<g><path style="opacity:0.094" fill="#2a3571" d="M 243.5,452.5 C 245.048,452.821 245.715,453.821 245.5,455.5C 244.599,454.71 243.932,453.71 243.5,452.5 Z"/></g>
<g><path style="opacity:0.106" fill="#23307b" d="M 159.5,452.5 C 159.56,451.957 159.893,451.624 160.5,451.5C 161.812,456.318 161.812,460.985 160.5,465.5C 160.818,460.968 160.485,456.634 159.5,452.5 Z"/></g>
<g><path style="opacity:0.875" fill="#b87f4e" d="M 252.5,453.5 C 253.633,455.055 254.299,456.889 254.5,459C 253.969,463.409 252.969,467.575 251.5,471.5C 252.165,465.523 252.498,459.523 252.5,453.5 Z"/></g>
<g><path style="opacity:0.62" fill="#b67843" d="M 118.5,451.5 C 119.391,452.261 120.058,453.261 120.5,454.5C 118.334,461.009 116.001,467.342 113.5,473.5C 115.583,466.254 117.249,458.921 118.5,451.5 Z"/></g>
<g><path style="opacity:0.62" fill="#c48347" d="M 167.5,467.5 C 167.5,468.5 167.5,469.5 167.5,470.5C 167.291,471.922 166.791,473.255 166,474.5C 165.725,471.942 166.225,469.608 167.5,467.5 Z"/></g>
<g><path style="opacity:0.38" fill="#3b6aa6" d="M 81.5,467.5 C 81.573,469.027 80.9063,470.027 79.5,470.5C 79.427,468.973 80.0937,467.973 81.5,467.5 Z"/></g>
<g><path style="opacity:0.816" fill="#507fbc" d="M 42.5,467.5 C 42.2766,471.162 41.2766,474.495 39.5,477.5C 39.7234,473.838 40.7234,470.505 42.5,467.5 Z"/></g>
<g><path style="opacity:0.941" fill="#6991c4" d="M 105.5,476.5 C 105.5,475.5 105.5,474.5 105.5,473.5C 106.833,473.167 106.833,472.833 105.5,472.5C 105.783,471.711 106.283,471.044 107,470.5C 107.738,472.881 107.238,474.881 105.5,476.5 Z"/></g>
<g><path style="opacity:0.471" fill="#b36c3a" d="M 113.5,473.5 C 113.483,475.565 113.15,477.565 112.5,479.5C 112.631,480.239 112.464,480.906 112,481.5C 111.297,478.518 111.797,475.851 113.5,473.5 Z"/></g>
<g><path style="opacity:0.537" fill="#4473b9" d="M 132.5,468.5 C 132.706,471.495 132.04,474.162 130.5,476.5C 130.565,473.572 131.232,470.905 132.5,468.5 Z"/></g>
<g><path style="opacity:0.62" fill="#b4753f" d="M 251.5,471.5 C 251.277,475.162 250.277,478.495 248.5,481.5C 248.723,477.838 249.723,474.505 251.5,471.5 Z"/></g>
<g><path style="opacity:0.969" fill="#6e94ca" d="M 188.5,472.5 C 188.605,476.258 187.605,479.592 185.5,482.5C 185.723,478.838 186.723,475.505 188.5,472.5 Z"/></g>
<g><path style="opacity:0.816" fill="#5179bc" d="M 158.5,476.5 C 158.59,479.152 157.924,481.485 156.5,483.5C 156.41,480.848 157.076,478.515 158.5,476.5 Z"/></g>
<g><path style="opacity:0.941" fill="#567fb8" d="M 130.5,476.5 C 130.197,482.077 128.53,487.077 125.5,491.5C 126.997,486.341 128.664,481.341 130.5,476.5 Z"/></g>
<g><path style="opacity:0.816" fill="#517fbd" d="M 208.5,478.5 C 208.472,481.916 207.472,484.916 205.5,487.5C 205.928,484.215 206.928,481.215 208.5,478.5 Z"/></g>
<g><path style="opacity:0.969" fill="#6a8bbe" d="M 185.5,482.5 C 185.834,485.491 184.834,487.824 182.5,489.5C 182.935,486.843 183.935,484.509 185.5,482.5 Z"/></g>
<g><path style="opacity:0.38" fill="#3b6aa6" d="M 238.5,484.5 C 238.573,486.027 237.906,487.027 236.5,487.5C 236.427,485.973 237.094,484.973 238.5,484.5 Z"/></g>
<g><path style="opacity:0.761" fill="#ce8f53" d="M 47.5,473.5 C 46.9435,477.84 46.2769,482.173 45.5,486.5C 45.968,489.233 46.6347,491.9 47.5,494.5C 46.8826,494.389 46.3826,494.056 46,493.5C 43.7994,486.528 44.2994,479.861 47.5,473.5 Z"/></g>
<g><path style="opacity:0.969" fill="#7798c7" d="M 73.5,484.5 C 73.3347,488.182 73.5014,491.848 74,495.5C 75.045,496.373 75.8783,497.373 76.5,498.5C 74.2475,498.084 72.7475,496.751 72,494.5C 71.3256,490.888 71.8256,487.554 73.5,484.5 Z"/></g>
<g><path style="opacity:0.969" fill="#6a93c9" d="M 205.5,488.5 C 205.483,492.534 204.483,496.201 202.5,499.5C 202.742,495.521 203.742,491.854 205.5,488.5 Z"/></g>
<g><path style="opacity:0.62" fill="#b7773f" d="M 162.5,490.5 C 162.267,493.542 161.267,496.208 159.5,498.5C 159.733,495.458 160.733,492.792 162.5,490.5 Z"/></g>
<g><path style="opacity:0.62" fill="#b6763f" d="M 213.5,492.5 C 212.739,496.784 211.405,500.784 209.5,504.5C 209.861,500.085 211.194,496.085 213.5,492.5 Z"/></g>
<g><path style="opacity:0.471" fill="#b46f37" d="M 209.5,504.5 C 209.102,508.761 208.102,512.761 206.5,516.5C 206.584,512.163 207.584,508.163 209.5,504.5 Z"/></g>
<g><path style="opacity:0.537" fill="#437abe" d="M 201.5,503.5 C 201.706,506.495 201.04,509.162 199.5,511.5C 199.565,508.572 200.232,505.905 201.5,503.5 Z"/></g>
<g><path style="opacity:0.761" fill="#b87542" d="M 205.5,522.5 C 205.182,529.346 204.515,536.013 203.5,542.5C 203.334,537.156 203.501,531.823 204,526.5C 204.21,524.942 204.71,523.609 205.5,522.5 Z"/></g>
<g><path style="opacity:0.537" fill="#4d7fbe" d="M 196.5,527.5 C 196.001,534.49 195.668,541.49 195.5,548.5C 194.475,547.626 193.808,546.459 193.5,545C 194.252,538.992 195.252,533.159 196.5,527.5 Z"/></g>
</svg>
