<?xml version="1.0" encoding="UTF-8"?>
<!DOCTYPE svg PUBLIC "-//W3C//DTD SVG 1.1//EN" "http://www.w3.org/Graphics/SVG/1.1/DTD/svg11.dtd">
<svg xmlns="http://www.w3.org/2000/svg" version="1.1" width="221px" height="222px" style="shape-rendering:geometricPrecision; text-rendering:geometricPrecision; image-rendering:optimizeQuality; fill-rule:evenodd; clip-rule:evenodd" xmlns:xlink="http://www.w3.org/1999/xlink">
<g><path style="opacity:1" fill="#a9aaad" d="M -0.5,-0.5 C 72.8333,-0.5 146.167,-0.5 219.5,-0.5C 219.5,73.1667 219.5,146.833 219.5,220.5C 146.167,220.5 72.8333,220.5 -0.5,220.5C -0.5,146.833 -0.5,73.1667 -0.5,-0.5 Z"/></g>
<g><path style="opacity:1" fill="#727274" d="M 215.5,3.5 C 216.166,10.6589 216.5,17.9922 216.5,25.5C 216.497,33.1984 215.831,40.5318 214.5,47.5C 214.5,46.5 214.5,45.5 214.5,44.5C 215.496,31.0102 215.829,17.3435 215.5,3.5 Z"/></g>
<g><path style="opacity:1" fill="#252123" d="M 171.5,4.5 C 185.99,3.50398 200.657,3.17065 215.5,3.5C 215.829,17.3435 215.496,31.0102 214.5,44.5C 207.918,22.9207 193.585,9.58734 171.5,4.5 Z"/></g>
<g><path style="opacity:1" fill="#fbfbfb" d="M 171.5,4.5 C 193.585,9.58734 207.918,22.9207 214.5,44.5C 214.5,45.5 214.5,46.5 214.5,47.5C 215.833,88.8333 215.833,130.167 214.5,171.5C 214.5,172.5 214.5,173.5 214.5,174.5C 207.662,196.004 193.328,209.671 171.5,215.5C 170.292,216.234 168.959,216.567 167.5,216.5C 126.791,216.822 86.124,216.489 45.5,215.5C 43.7839,215.371 42.1172,215.038 40.5,214.5C 22.522,207.855 10.1887,195.522 3.5,177.5C 2.962,175.883 2.62867,174.216 2.5,172.5C 1.34476,131.208 1.17809,89.8747 2,48.5C 4.19676,44.4098 5.69676,40.0764 6.5,35.5C 14.4286,18.9163 27.4286,8.58295 45.5,4.5C 87.5,3.16667 129.5,3.16667 171.5,4.5 Z"/></g>
<g><path style="opacity:1" fill="#696667" d="M 23.5,45.5 C 23.5905,48.1522 22.9238,50.4855 21.5,52.5C 21.4095,49.8478 22.0762,47.5145 23.5,45.5 Z"/></g>
<g><path style="opacity:1" fill="#242021" d="M 197.5,157.5 C 196.377,162.35 195.377,167.35 194.5,172.5C 188.149,187.984 176.482,196.484 159.5,198C 124.5,198.667 89.5,198.667 54.5,198C 35.6672,195 24.6672,184.167 21.5,165.5C 20.1929,127.844 20.1929,90.1769 21.5,52.5C 22.9238,50.4855 23.5905,48.1522 23.5,45.5C 29.709,31.8148 40.3756,23.9815 55.5,22C 90.4952,20.0328 125.495,20.0328 160.5,22C 181.428,24.9282 193.928,36.7616 198,57.5C 198.831,91.0025 198.664,124.336 197.5,157.5 Z"/></g>
<g><path style="opacity:1" fill="#f8f8f8" d="M 163.5,121.5 C 162.076,123.515 161.41,125.848 161.5,128.5C 148.546,156.815 126.546,168.648 95.5,164C 63.7091,152.599 50.2091,130.099 55,96.5C 64.5325,67.9779 84.3658,54.1446 114.5,55C 139.75,58.9489 156.084,73.1156 163.5,97.5C 164.77,105.527 164.77,113.527 163.5,121.5 Z"/></g>
<g><path style="opacity:1" fill="#f4f4f4" d="M 163.5,38.5 C 175.709,38.6961 181.042,44.6961 179.5,56.5C 171.054,68.431 162.554,68.431 154,56.5C 153.163,52.7054 153.496,49.0387 155,45.5C 157.441,42.5464 160.275,40.2131 163.5,38.5 Z"/></g>
<g><path style="opacity:1" fill="#252223" d="M 45.5,4.5 C 27.4286,8.58295 14.4286,18.9163 6.5,35.5C 4.53766,38.865 3.03766,42.5317 2,46.5C 1.50009,32.1705 1.33342,17.8372 1.5,3.5C 16.3428,3.17065 31.0095,3.50398 45.5,4.5 Z"/></g>
<g><path style="opacity:1" fill="#242021" d="M 101.5,74.5 C 123.748,72.6129 137.915,82.2796 144,103.5C 144.449,133.052 129.949,146.885 100.5,145C 75.7256,135.274 67.8923,117.774 77,92.5C 82.878,83.1668 91.0447,77.1668 101.5,74.5 Z"/></g>
<g><path style="opacity:1" fill="#585557" d="M 21.5,52.5 C 20.1929,90.1769 20.1929,127.844 21.5,165.5C 20.7321,164.737 20.2321,163.737 20,162.5C 18.4721,131.516 18.1387,100.516 19,69.5C 19.0485,63.5702 19.8819,57.9035 21.5,52.5 Z"/></g>
<g><path style="opacity:1" fill="#6a6869" d="M 163.5,121.5 C 163.59,124.152 162.924,126.485 161.5,128.5C 161.41,125.848 162.076,123.515 163.5,121.5 Z"/></g>
<g><path style="opacity:1" fill="#959394" d="M 197.5,157.5 C 197.876,162.894 196.876,167.894 194.5,172.5C 195.377,167.35 196.377,162.35 197.5,157.5 Z"/></g>
<g><path style="opacity:1" fill="#272425" d="M 214.5,174.5 C 215.496,188.323 215.829,202.323 215.5,216.5C 200.657,216.829 185.99,216.496 171.5,215.5C 193.328,209.671 207.662,196.004 214.5,174.5 Z"/></g>
<g><path style="opacity:1" fill="#232021" d="M 3.5,177.5 C 10.1887,195.522 22.522,207.855 40.5,214.5C 28.011,215.495 15.3443,215.829 2.5,215.5C 2.17132,202.656 2.50465,189.989 3.5,177.5 Z"/></g>
<g><path style="opacity:1" fill="#383639" d="M 2.5,172.5 C 2.62867,174.216 2.962,175.883 3.5,177.5C 2.50465,189.989 2.17132,202.656 2.5,215.5C 15.3443,215.829 28.011,215.495 40.5,214.5C 42.1172,215.038 43.7839,215.371 45.5,215.5C 31.0095,216.496 16.3428,216.829 1.5,216.5C 1.17065,201.657 1.50398,186.99 2.5,172.5 Z"/></g>
<g><path style="opacity:1" fill="#89898b" d="M 214.5,171.5 C 216.484,186.464 217.151,201.797 216.5,217.5C 199.991,217.83 183.658,217.496 167.5,216.5C 168.959,216.567 170.292,216.234 171.5,215.5C 185.99,216.496 200.657,216.829 215.5,216.5C 215.829,202.323 215.496,188.323 214.5,174.5C 214.5,173.5 214.5,172.5 214.5,171.5 Z"/></g>
<g><path style="opacity:1" fill="#d4d4d7" d="M 219.5,-0.5 C 219.833,-0.5 220.167,-0.5 220.5,-0.5C 220.5,73.5 220.5,147.5 220.5,221.5C 146.833,221.5 73.1667,221.5 -0.5,221.5C -0.5,221.167 -0.5,220.833 -0.5,220.5C 72.8333,220.5 146.167,220.5 219.5,220.5C 219.5,146.833 219.5,73.1667 219.5,-0.5 Z"/></g>
</svg>
