<?xml version="1.0" encoding="UTF-8"?>
<!DOCTYPE svg PUBLIC "-//W3C//DTD SVG 1.1//EN" "http://www.w3.org/Graphics/SVG/1.1/DTD/svg11.dtd">
<svg xmlns="http://www.w3.org/2000/svg" version="1.1" 
viewBox="0 0 348 403" style="shape-rendering:geometricPrecision; text-rendering:geometricPrecision; image-rendering:optimizeQuality; fill-rule:evenodd; clip-rule:evenodd" xmlns:xlink="http://www.w3.org/1999/xlink">
<g><path style="opacity:1" fill="#fffefe" d="M -0.5,-0.5 C 115.5,-0.5 231.5,-0.5 347.5,-0.5C 347.5,133.833 347.5,268.167 347.5,402.5C 231.5,402.5 115.5,402.5 -0.5,402.5C -0.5,268.167 -0.5,133.833 -0.5,-0.5 Z"/></g>
<g><path style="opacity:1" fill="#ff6723" d="M 171.5,8.5 C 173.527,8.33788 175.527,8.50454 177.5,9C 229.822,47.3149 269.656,95.8149 297,154.5C 308.733,183.331 314.9,213.331 315.5,244.5C 314.604,293.791 294.937,333.624 256.5,364C 210.738,395.262 162.405,399.928 111.5,378C 66.1534,352.956 38.9868,314.789 30,263.5C 25.6866,233.06 28.6866,203.393 39,174.5C 50.423,142.645 66.2563,113.312 86.5,86.5C 87.365,85.4173 88.365,85.2506 89.5,86C 92.7977,95.2369 95.2977,104.737 97,114.5C 98.1392,117.583 99.4725,120.583 101,123.5C 104.824,119.186 108.157,114.519 111,109.5C 128.4,79.7566 145.4,49.7566 162,19.5C 164.314,15.025 167.48,11.3583 171.5,8.5 Z"/></g>
<g><path style="opacity:1" fill="#ffaf2d" d="M 169.5,118.5 C 170.873,118.343 172.207,118.51 173.5,119C 212.794,145.77 242.627,180.603 263,223.5C 274.053,248.591 277.053,274.591 272,301.5C 259.053,344.775 230.22,369.942 185.5,377C 134.81,381.08 98.643,360.246 77,314.5C 65.8997,282.978 67.233,251.978 81,221.5C 102.054,179.944 131.554,145.61 169.5,118.5 Z"/></g>
</svg>
