<?xml version="1.0" encoding="UTF-8"?>
<!DOCTYPE svg PUBLIC "-//W3C//DTD SVG 1.1//EN" "http://www.w3.org/Graphics/SVG/1.1/DTD/svg11.dtd">
<svg xmlns="http://www.w3.org/2000/svg" version="1.1" width="59px" height="57px" style="shape-rendering:geometricPrecision; text-rendering:geometricPrecision; image-rendering:optimizeQuality; fill-rule:evenodd; clip-rule:evenodd" xmlns:xlink="http://www.w3.org/1999/xlink">
<g><path style="opacity:0.263" fill="#2fff13" d="M 24.5,2.5 C 36.2496,0.926423 41.9163,5.92642 41.5,17.5C 57.7361,16.2223 62.0695,22.7223 54.5,37C 52.7536,37.4709 51.087,38.1376 49.5,39C 52.3795,52.1219 47.0462,57.4552 33.5,55C 30.7047,53.2068 28.2047,51.0402 26,48.5C 15.3063,53.6505 9.13965,50.3171 7.5,38.5C 0.6201,34.5902 -1.21323,28.9236 2,21.5C 5.64423,16.686 10.4776,14.3526 16.5,14.5C 16.7112,8.7151 19.3778,4.7151 24.5,2.5 Z M 28.5,13.5 C 32.0048,15.4167 32.3382,17.75 29.5,20.5C 26.2419,18.395 25.9086,16.0617 28.5,13.5 Z M 14.5,25.5 C 15.6431,25.9081 16.6431,26.5748 17.5,27.5C 16.1667,28.8333 14.8333,28.8333 13.5,27.5C 13.8627,26.8165 14.1961,26.1499 14.5,25.5 Z M 36.5,41.5 C 38.0847,42.0024 38.5847,43.0024 38,44.5C 36.9614,43.7562 36.4614,42.7562 36.5,41.5 Z"/></g>
<g><path style="opacity:0.39" fill="#33ff17" d="M 36.5,12.5 C 36.8094,16.7047 36.1428,20.7047 34.5,24.5C 31.3644,28.3863 28.3644,28.3863 25.5,24.5C 22.0262,20.0469 21.6929,15.3802 24.5,10.5C 25.6878,9.16003 27.1878,8.49337 29,8.5C 31.7049,9.43598 34.2049,10.7693 36.5,12.5 Z M 28.5,13.5 C 25.9086,16.0617 26.2419,18.395 29.5,20.5C 32.3382,17.75 32.0048,15.4167 28.5,13.5 Z"/></g>
<g><path style="opacity:0.874" fill="#c3ffb9" d="M 36.5,12.5 C 37.7883,15.7001 37.7883,19.0334 36.5,22.5C 37.325,23.3857 38.325,23.719 39.5,23.5C 38.3285,24.3446 36.9952,25.0113 35.5,25.5C 35.5,24.8333 35.1667,24.5 34.5,24.5C 36.1428,20.7047 36.8094,16.7047 36.5,12.5 Z"/></g>
<g><path style="opacity:0.89" fill="#c4ffb9" d="M 36.5,12.5 C 34.2049,10.7693 31.7049,9.43598 29,8.5C 27.1878,8.49337 25.6878,9.16003 24.5,10.5C 21.6929,15.3802 22.0262,20.0469 25.5,24.5C 24.8333,24.5 24.5,24.8333 24.5,25.5C 22.0208,23.4608 19.3542,21.7941 16.5,20.5C 17.9305,20.4208 19.2638,20.7542 20.5,21.5C 21.3236,18.2152 21.8236,14.8818 22,11.5C 24.5575,7.78836 28.0575,6.62169 32.5,8C 34.751,8.74753 36.0844,10.2475 36.5,12.5 Z"/></g>
<g><path style="opacity:0.769" fill="#bcffaf" d="M 16.5,20.5 C 12.77,21.0558 9.60336,22.7225 7,25.5C 6.69482,27.5568 6.69482,29.5568 7,31.5C 5.48198,29.3863 5.14865,27.053 6,24.5C 7.92521,23.1196 9.75854,21.6196 11.5,20C 13.3869,19.2204 15.0536,19.3871 16.5,20.5 Z"/></g>
<g><path style="opacity:0.404" fill="#37ff1c" d="M 39.5,23.5 C 43.6372,23.1463 47.6372,23.6463 51.5,25C 52.8663,27.3818 52.533,29.5485 50.5,31.5C 44.2494,34.4145 38.2494,34.0812 32.5,30.5C 32.953,28.4348 33.953,26.7682 35.5,25.5C 36.9952,25.0113 38.3285,24.3446 39.5,23.5 Z"/></g>
<g><path style="opacity:0.88" fill="#c0ffb5" d="M 39.5,23.5 C 43.7691,22.109 48.1024,22.2756 52.5,24C 53.966,27.0387 53.6327,29.872 51.5,32.5C 47.3657,34.1177 43.0324,34.951 38.5,35C 39.6721,35.4186 40.6721,36.0853 41.5,37C 41.1667,37.1667 40.8333,37.3333 40.5,37.5C 37.5617,35.5352 34.5617,33.8685 31.5,32.5C 32.3382,32.1583 32.6716,31.4916 32.5,30.5C 38.2494,34.0812 44.2494,34.4145 50.5,31.5C 52.533,29.5485 52.8663,27.3818 51.5,25C 47.6372,23.6463 43.6372,23.1463 39.5,23.5 Z"/></g>
<g><path style="opacity:0.804" fill="#f4fff1" d="M 25.5,24.5 C 28.3644,28.3863 31.3644,28.3863 34.5,24.5C 35.1667,24.5 35.5,24.8333 35.5,25.5C 33.953,26.7682 32.953,28.4348 32.5,30.5C 32.6716,31.4916 32.3382,32.1583 31.5,32.5C 31.1667,32.5 30.8333,32.5 30.5,32.5C 29.5,32.5 28.5,32.5 27.5,32.5C 27.5,32.1667 27.5,31.8333 27.5,31.5C 26.8333,31.8333 26.1667,32.1667 25.5,32.5C 25.4431,31.391 25.1098,30.391 24.5,29.5C 25.3764,29.6309 26.0431,29.2975 26.5,28.5C 25.8075,27.4822 25.1408,26.4822 24.5,25.5C 24.5,24.8333 24.8333,24.5 25.5,24.5 Z"/></g>
<g><path style="opacity:0.54" fill="#36ff1c" d="M 27.5,31.5 C 27.5,31.8333 27.5,32.1667 27.5,32.5C 27.628,34.6547 27.128,36.6547 26,38.5C 24.2483,41.4116 22.0817,43.7449 19.5,45.5C 16.142,44.4731 14.4754,42.1398 14.5,38.5C 17.6469,35.4722 21.3136,33.4722 25.5,32.5C 26.1667,32.1667 26.8333,31.8333 27.5,31.5 Z"/></g>
<g><path style="opacity:0.908" fill="#c1ffb6" d="M 24.5,29.5 C 25.1098,30.391 25.4431,31.391 25.5,32.5C 21.3136,33.4722 17.6469,35.4722 14.5,38.5C 14.5106,36.9826 15.1772,35.8159 16.5,35C 14.0995,34.8142 11.7662,34.3142 9.5,33.5C 9.66667,33.1667 9.83333,32.8333 10,32.5C 13.0731,33.6168 16.2397,33.7835 19.5,33C 20.8463,31.3308 22.513,30.1642 24.5,29.5 Z"/></g>
<g><path style="opacity:0.902" fill="#b6ffa8" d="M 27.5,32.5 C 28.5,32.5 29.5,32.5 30.5,32.5C 29.0669,34.5582 28.4003,36.8915 28.5,39.5C 26.4163,41.0767 24.4163,42.91 22.5,45C 21.552,45.4828 20.552,45.6495 19.5,45.5C 22.0817,43.7449 24.2483,41.4116 26,38.5C 27.128,36.6547 27.628,34.6547 27.5,32.5 Z"/></g>
<g><path style="opacity:0.876" fill="#c3ffb9" d="M 44.5,42.5 C 43.1522,41.4732 42.6522,40.1398 43,38.5C 44.1882,39.5634 44.6882,40.8967 44.5,42.5 Z"/></g>
<g><path style="opacity:0.945" fill="#daffd4" d="M 14.5,38.5 C 14.4754,42.1398 16.142,44.4731 19.5,45.5C 15.9824,46.3629 13.9824,44.6962 13.5,40.5C 13.5427,39.5836 13.8761,38.9169 14.5,38.5 Z"/></g>
<g><path style="opacity:0.894" fill="#c3ffb9" d="M 28.5,39.5 C 30.1747,41.1788 31.008,43.1788 31,45.5C 29.3375,43.8421 28.5041,41.8421 28.5,39.5 Z"/></g>
<g><path style="opacity:0.788" fill="#b4ffa6" d="M 44.5,42.5 C 47.1667,45.0814 46.8334,47.5814 43.5,50C 38.9302,52.655 35.2636,51.8217 32.5,47.5C 32.6667,47.1667 32.8333,46.8333 33,46.5C 37.7288,51.6029 41.8955,51.1029 45.5,45C 45.2568,44.0979 44.9234,43.2646 44.5,42.5 Z"/></g>
</svg>
