<?xml version="1.0" encoding="UTF-8"?>
<!DOCTYPE svg PUBLIC "-//W3C//DTD SVG 1.1//EN" "http://www.w3.org/Graphics/SVG/1.1/DTD/svg11.dtd">
<svg xmlns="http://www.w3.org/2000/svg" version="1.1" viewBox="0 0 150 150" style="shape-rendering:geometricPrecision; text-rendering:geometricPrecision; image-rendering:optimizeQuality; fill-rule:evenodd; clip-rule:evenodd" xmlns:xlink="http://www.w3.org/1999/xlink">
<g><path style="opacity:0.92" fill="#479b36" d="M 62.5,17.5 C 85.6445,17.6561 103.644,27.3228 116.5,46.5C 116.167,47.1667 115.833,47.8333 115.5,48.5C 116.577,50.7294 117.244,53.0628 117.5,55.5C 118.5,55.5 119.5,55.5 120.5,55.5C 126.715,72.1958 125.215,88.1958 116,103.5C 111.755,109.469 106.922,114.969 101.5,120C 95.5578,121.938 89.5578,123.771 83.5,125.5C 81.0182,124.103 78.3516,123.269 75.5,123C 60.2581,124.027 46.5915,120.027 34.5,111C 37.0168,110.743 39.3502,111.41 41.5,113C 43.1667,113.667 44.8333,113.667 46.5,113C 39.3759,109.939 32.7092,106.105 26.5,101.5C 28.0745,100.369 29.7412,100.202 31.5,101C 35.0066,103.254 38.6733,105.254 42.5,107C 48.8837,107.859 54.8837,109.859 60.5,113C 65.1431,113.998 69.8098,114.332 74.5,114C 82.432,111.727 90.432,108.06 98.5,103C 106.372,94.0346 109.872,83.5346 109,71.5C 109.692,70.9747 110.192,70.3081 110.5,69.5C 106.998,57.9042 101.331,47.7376 93.5,39C 87.7561,35.7955 81.7561,33.1289 75.5,31C 66.9205,30.1916 58.7538,31.6916 51,35.5C 50.586,35.0426 50.086,34.7093 49.5,34.5C 35.7601,43.3848 31.0935,55.7181 35.5,71.5C 35.6102,73.374 34.9436,74.874 33.5,76C 30.4361,77.3665 27.4361,77.8665 24.5,77.5C 22.3426,75.2082 20.1759,72.8749 18,70.5C 16.4661,66.2891 16.1327,61.9558 17,57.5C 20.2874,48.9247 24.6207,40.9247 30,33.5C 33.2508,29.5783 37.0841,26.4117 41.5,24C 48.3758,21.0376 55.3758,18.8709 62.5,17.5 Z"/></g>
</svg>
